<?xml version="1.0" standalone="no"?><svg xmlns="http://www.w3.org/2000/svg" viewBox="0 0 1440 320"><path fill="#273036" fill-opacity="1" d="M0,64L8.3,74.7C16.6,85,33,107,50,106.7C66.2,107,83,85,99,96C115.9,107,132,149,149,165.3C165.5,181,182,171,199,165.3C215.2,160,232,160,248,186.7C264.8,213,281,267,298,256C314.5,245,331,171,348,165.3C364.1,160,381,224,397,245.3C413.8,267,430,245,447,240C463.4,235,480,245,497,218.7C513.1,192,530,128,546,138.7C562.8,149,579,235,596,234.7C612.4,235,629,149,646,112C662.1,75,679,85,695,112C711.7,139,728,181,745,186.7C761.4,192,778,160,794,176C811,192,828,256,844,277.3C860.7,299,877,277,894,266.7C910.3,256,927,256,943,213.3C960,171,977,85,993,48C1009.7,11,1026,21,1043,69.3C1059.3,117,1076,203,1092,229.3C1109,256,1126,224,1142,213.3C1158.6,203,1175,213,1192,181.3C1208.3,149,1225,75,1241,85.3C1257.9,96,1274,192,1291,197.3C1307.6,203,1324,117,1341,117.3C1357.2,117,1374,203,1390,208C1406.9,213,1423,139,1432,101.3L1440,64L1440,320L1431.7,320C1423.4,320,1407,320,1390,320C1373.8,320,1357,320,1341,320C1324.1,320,1308,320,1291,320C1274.5,320,1258,320,1241,320C1224.8,320,1208,320,1192,320C1175.2,320,1159,320,1142,320C1125.5,320,1109,320,1092,320C1075.9,320,1059,320,1043,320C1026.2,320,1010,320,993,320C976.6,320,960,320,943,320C926.9,320,910,320,894,320C877.2,320,861,320,844,320C827.6,320,811,320,794,320C777.9,320,761,320,745,320C728.3,320,712,320,695,320C678.6,320,662,320,646,320C629,320,612,320,596,320C579.3,320,563,320,546,320C529.7,320,513,320,497,320C480,320,463,320,447,320C430.3,320,414,320,397,320C380.7,320,364,320,348,320C331,320,314,320,298,320C281.4,320,265,320,248,320C231.7,320,215,320,199,320C182.1,320,166,320,149,320C132.4,320,116,320,99,320C82.8,320,66,320,50,320C33.1,320,17,320,8,320L0,320Z"></path></svg>